<mxfile host="app.diagrams.net" agent="Mozilla/5.0 (X11; Linux x86_64) AppleWebKit/537.36 (KHTML, like Gecko) Chrome/124.0.0.0 Safari/537.36" version="24.7.17">
  <diagram name="Page-1" id="ok4o0Kv7bNv_8W3ngVij">
    <mxGraphModel dx="1078" dy="639" grid="1" gridSize="10" guides="1" tooltips="1" connect="1" arrows="1" fold="1" page="1" pageScale="1" pageWidth="827" pageHeight="1169" math="0" shadow="0">
      <root>
        <mxCell id="0" />
        <mxCell id="1" parent="0" />
        <mxCell id="wt9g7eq3BOetHxJ-n1tp-24" value="Agent" style="shape=umlActor;verticalLabelPosition=bottom;verticalAlign=top;html=1;outlineConnect=0;" parent="1" vertex="1">
          <mxGeometry x="110" y="277.5" width="30" height="60" as="geometry" />
        </mxCell>
        <mxCell id="wt9g7eq3BOetHxJ-n1tp-27" value="demandeur" style="shape=umlActor;verticalLabelPosition=bottom;verticalAlign=top;html=1;outlineConnect=0;" parent="1" vertex="1">
          <mxGeometry x="480" y="365" width="30" height="60" as="geometry" />
        </mxCell>
        <mxCell id="wt9g7eq3BOetHxJ-n1tp-37" value="secréteriat" style="shape=umlActor;verticalLabelPosition=bottom;verticalAlign=top;html=1;outlineConnect=0;" parent="1" vertex="1">
          <mxGeometry x="120" y="500" width="30" height="60" as="geometry" />
        </mxCell>
        <mxCell id="wt9g7eq3BOetHxJ-n1tp-28" value="" style="rounded=0;whiteSpace=wrap;html=1;movable=1;resizable=1;rotatable=1;deletable=1;editable=1;locked=0;connectable=1;container=0;" parent="1" vertex="1">
          <mxGeometry x="230" y="240" width="160" height="1060" as="geometry" />
        </mxCell>
        <mxCell id="wt9g7eq3BOetHxJ-n1tp-29" value="Entreprise" style="text;html=1;align=center;verticalAlign=middle;whiteSpace=wrap;rounded=0;movable=1;resizable=1;rotatable=1;deletable=1;editable=1;locked=0;connectable=1;container=0;" parent="1" vertex="1">
          <mxGeometry x="280" y="240" width="60" height="30" as="geometry" />
        </mxCell>
        <mxCell id="wt9g7eq3BOetHxJ-n1tp-46" value="" style="ellipse;whiteSpace=wrap;html=1;container=0;" parent="1" vertex="1">
          <mxGeometry x="250" y="460" width="120" height="80" as="geometry" />
        </mxCell>
        <mxCell id="wt9g7eq3BOetHxJ-n1tp-47" value="Consulter bon travaux" style="text;html=1;align=center;verticalAlign=middle;whiteSpace=wrap;rounded=0;container=0;" parent="1" vertex="1">
          <mxGeometry x="280" y="485" width="60" height="30" as="geometry" />
        </mxCell>
        <mxCell id="wt9g7eq3BOetHxJ-n1tp-30" value="" style="ellipse;whiteSpace=wrap;html=1;movable=1;resizable=1;rotatable=1;deletable=1;editable=1;locked=0;connectable=1;container=0;" parent="1" vertex="1">
          <mxGeometry x="250" y="280" width="120" height="80" as="geometry" />
        </mxCell>
        <mxCell id="wt9g7eq3BOetHxJ-n1tp-31" value="Créer bon travaux" style="text;html=1;align=center;verticalAlign=middle;whiteSpace=wrap;rounded=0;movable=1;resizable=1;rotatable=1;deletable=1;editable=1;locked=0;connectable=1;container=0;" parent="1" vertex="1">
          <mxGeometry x="275" y="302.5" width="70" height="35" as="geometry" />
        </mxCell>
        <mxCell id="wt9g7eq3BOetHxJ-n1tp-39" value="" style="ellipse;whiteSpace=wrap;html=1;container=0;" parent="1" vertex="1">
          <mxGeometry x="250" y="370" width="120" height="80" as="geometry" />
        </mxCell>
        <mxCell id="wt9g7eq3BOetHxJ-n1tp-40" value="suivi des travaux" style="text;html=1;align=center;verticalAlign=middle;whiteSpace=wrap;rounded=0;container=0;" parent="1" vertex="1">
          <mxGeometry x="280" y="395" width="60" height="30" as="geometry" />
        </mxCell>
        <mxCell id="wt9g7eq3BOetHxJ-n1tp-48" value="" style="ellipse;whiteSpace=wrap;html=1;container=0;" parent="1" vertex="1">
          <mxGeometry x="250" y="560" width="120" height="80" as="geometry" />
        </mxCell>
        <mxCell id="wt9g7eq3BOetHxJ-n1tp-49" value="MàJ bon travaux" style="text;html=1;align=center;verticalAlign=middle;whiteSpace=wrap;rounded=0;container=0;" parent="1" vertex="1">
          <mxGeometry x="280" y="585" width="60" height="30" as="geometry" />
        </mxCell>
        <mxCell id="wt9g7eq3BOetHxJ-n1tp-50" value="" style="ellipse;whiteSpace=wrap;html=1;container=0;" parent="1" vertex="1">
          <mxGeometry x="250" y="660" width="120" height="80" as="geometry" />
        </mxCell>
        <mxCell id="wt9g7eq3BOetHxJ-n1tp-51" value="Supprimer bon travaux" style="text;html=1;align=center;verticalAlign=middle;whiteSpace=wrap;rounded=0;container=0;" parent="1" vertex="1">
          <mxGeometry x="280" y="685" width="60" height="30" as="geometry" />
        </mxCell>
        <mxCell id="wt9g7eq3BOetHxJ-n1tp-52" value="" style="ellipse;whiteSpace=wrap;html=1;container=0;" parent="1" vertex="1">
          <mxGeometry x="250" y="760" width="120" height="80" as="geometry" />
        </mxCell>
        <mxCell id="wt9g7eq3BOetHxJ-n1tp-53" value="Consulter intervention" style="text;html=1;align=center;verticalAlign=middle;whiteSpace=wrap;rounded=0;container=0;" parent="1" vertex="1">
          <mxGeometry x="280" y="785" width="60" height="30" as="geometry" />
        </mxCell>
        <mxCell id="wt9g7eq3BOetHxJ-n1tp-54" value="" style="ellipse;whiteSpace=wrap;html=1;container=0;" parent="1" vertex="1">
          <mxGeometry x="250" y="860" width="120" height="80" as="geometry" />
        </mxCell>
        <mxCell id="wt9g7eq3BOetHxJ-n1tp-55" value="MàJ intervention" style="text;html=1;align=center;verticalAlign=middle;whiteSpace=wrap;rounded=0;container=0;" parent="1" vertex="1">
          <mxGeometry x="280" y="885" width="60" height="30" as="geometry" />
        </mxCell>
        <mxCell id="wt9g7eq3BOetHxJ-n1tp-56" value="" style="ellipse;whiteSpace=wrap;html=1;container=0;" parent="1" vertex="1">
          <mxGeometry x="250" y="960" width="120" height="80" as="geometry" />
        </mxCell>
        <mxCell id="wt9g7eq3BOetHxJ-n1tp-57" value="Supprimer intervention" style="text;html=1;align=center;verticalAlign=middle;whiteSpace=wrap;rounded=0;container=0;" parent="1" vertex="1">
          <mxGeometry x="280" y="985" width="60" height="30" as="geometry" />
        </mxCell>
        <mxCell id="wt9g7eq3BOetHxJ-n1tp-58" value="" style="ellipse;whiteSpace=wrap;html=1;container=0;" parent="1" vertex="1">
          <mxGeometry x="250" y="1060" width="120" height="80" as="geometry" />
        </mxCell>
        <mxCell id="wt9g7eq3BOetHxJ-n1tp-59" value="Créer intervention" style="text;html=1;align=center;verticalAlign=middle;whiteSpace=wrap;rounded=0;container=0;" parent="1" vertex="1">
          <mxGeometry x="280" y="1085" width="60" height="30" as="geometry" />
        </mxCell>
        <mxCell id="wt9g7eq3BOetHxJ-n1tp-60" style="edgeStyle=orthogonalEdgeStyle;rounded=0;orthogonalLoop=1;jettySize=auto;html=1;entryX=0;entryY=0.5;entryDx=0;entryDy=0;" parent="1" source="wt9g7eq3BOetHxJ-n1tp-37" target="wt9g7eq3BOetHxJ-n1tp-30" edge="1">
          <mxGeometry relative="1" as="geometry" />
        </mxCell>
        <mxCell id="wt9g7eq3BOetHxJ-n1tp-64" style="edgeStyle=orthogonalEdgeStyle;rounded=0;orthogonalLoop=1;jettySize=auto;html=1;entryX=0;entryY=0.5;entryDx=0;entryDy=0;" parent="1" source="wt9g7eq3BOetHxJ-n1tp-37" target="wt9g7eq3BOetHxJ-n1tp-52" edge="1">
          <mxGeometry relative="1" as="geometry" />
        </mxCell>
        <mxCell id="wt9g7eq3BOetHxJ-n1tp-67" style="edgeStyle=orthogonalEdgeStyle;rounded=0;orthogonalLoop=1;jettySize=auto;html=1;entryX=0;entryY=0.5;entryDx=0;entryDy=0;" parent="1" source="wt9g7eq3BOetHxJ-n1tp-37" target="wt9g7eq3BOetHxJ-n1tp-58" edge="1">
          <mxGeometry relative="1" as="geometry" />
        </mxCell>
        <mxCell id="wt9g7eq3BOetHxJ-n1tp-62" style="edgeStyle=orthogonalEdgeStyle;rounded=0;orthogonalLoop=1;jettySize=auto;html=1;entryX=0;entryY=0.5;entryDx=0;entryDy=0;" parent="1" source="wt9g7eq3BOetHxJ-n1tp-37" target="wt9g7eq3BOetHxJ-n1tp-48" edge="1">
          <mxGeometry relative="1" as="geometry" />
        </mxCell>
        <mxCell id="wt9g7eq3BOetHxJ-n1tp-63" style="edgeStyle=orthogonalEdgeStyle;rounded=0;orthogonalLoop=1;jettySize=auto;html=1;entryX=0;entryY=0.5;entryDx=0;entryDy=0;" parent="1" source="wt9g7eq3BOetHxJ-n1tp-37" target="wt9g7eq3BOetHxJ-n1tp-50" edge="1">
          <mxGeometry relative="1" as="geometry" />
        </mxCell>
        <mxCell id="wt9g7eq3BOetHxJ-n1tp-65" style="edgeStyle=orthogonalEdgeStyle;rounded=0;orthogonalLoop=1;jettySize=auto;html=1;entryX=0;entryY=0.5;entryDx=0;entryDy=0;" parent="1" source="wt9g7eq3BOetHxJ-n1tp-37" target="wt9g7eq3BOetHxJ-n1tp-54" edge="1">
          <mxGeometry relative="1" as="geometry" />
        </mxCell>
        <mxCell id="wt9g7eq3BOetHxJ-n1tp-66" style="edgeStyle=orthogonalEdgeStyle;rounded=0;orthogonalLoop=1;jettySize=auto;html=1;entryX=0;entryY=0.5;entryDx=0;entryDy=0;" parent="1" source="wt9g7eq3BOetHxJ-n1tp-37" target="wt9g7eq3BOetHxJ-n1tp-56" edge="1">
          <mxGeometry relative="1" as="geometry" />
        </mxCell>
        <mxCell id="wt9g7eq3BOetHxJ-n1tp-61" style="edgeStyle=orthogonalEdgeStyle;rounded=0;orthogonalLoop=1;jettySize=auto;html=1;" parent="1" source="wt9g7eq3BOetHxJ-n1tp-37" target="wt9g7eq3BOetHxJ-n1tp-46" edge="1">
          <mxGeometry relative="1" as="geometry" />
        </mxCell>
        <mxCell id="wt9g7eq3BOetHxJ-n1tp-69" style="edgeStyle=orthogonalEdgeStyle;rounded=0;orthogonalLoop=1;jettySize=auto;html=1;entryX=0;entryY=0.5;entryDx=0;entryDy=0;fillColor=#f8cecc;strokeColor=#b85450;strokeWidth=2;" parent="1" source="wt9g7eq3BOetHxJ-n1tp-24" target="wt9g7eq3BOetHxJ-n1tp-39" edge="1">
          <mxGeometry relative="1" as="geometry">
            <Array as="points">
              <mxPoint x="210" y="310" />
              <mxPoint x="210" y="400" />
              <mxPoint x="250" y="400" />
            </Array>
          </mxGeometry>
        </mxCell>
        <mxCell id="wt9g7eq3BOetHxJ-n1tp-70" style="edgeStyle=orthogonalEdgeStyle;rounded=0;orthogonalLoop=1;jettySize=auto;html=1;entryX=0;entryY=0.5;entryDx=0;entryDy=0;fillColor=#f8cecc;strokeColor=#b85450;strokeWidth=2;" parent="1" source="wt9g7eq3BOetHxJ-n1tp-24" target="wt9g7eq3BOetHxJ-n1tp-48" edge="1">
          <mxGeometry relative="1" as="geometry">
            <Array as="points">
              <mxPoint x="210" y="310" />
              <mxPoint x="210" y="590" />
              <mxPoint x="250" y="590" />
            </Array>
          </mxGeometry>
        </mxCell>
        <mxCell id="wt9g7eq3BOetHxJ-n1tp-71" style="edgeStyle=orthogonalEdgeStyle;rounded=0;orthogonalLoop=1;jettySize=auto;html=1;entryX=0;entryY=0.5;entryDx=0;entryDy=0;fillColor=#f8cecc;strokeColor=#b85450;strokeWidth=2;" parent="1" source="wt9g7eq3BOetHxJ-n1tp-24" target="wt9g7eq3BOetHxJ-n1tp-46" edge="1">
          <mxGeometry relative="1" as="geometry">
            <Array as="points">
              <mxPoint x="210" y="310" />
              <mxPoint x="210" y="490" />
              <mxPoint x="250" y="490" />
            </Array>
          </mxGeometry>
        </mxCell>
      </root>
    </mxGraphModel>
  </diagram>
</mxfile>
